# xmcd
#
# Track frame offsets: 
#        150
#        49007
#        70022
#        89482
#        112352
#        139230
#        171097
#        193045
#        218805
#        233975
#        292810
#
# Disc length: 4275 seconds
#
# Revision: 2
# Processed by: cddbd v1.5.2PL0 Copyright (c) Steve Scherf et al.
# Submitted via: ExactAudioCopy v0.95b3
#
DISCID=a610b10b
DTITLE=B.B. King - King Of The Blues
DYEAR=2000
DGENRE=blues
TTITLE0=B.B. King Blues Theme
TTITLE1=Every Day I Have The Blues
TTITLE2=Why  I Sing The Blues
TTITLE3=You Know I Love You
TTITLE4=Sweet Little Angel
TTITLE5=All Over Again
TTITLE6=The Thrill Is Gone
TTITLE7=Guess Who?
TTITLE8=Caldonia
TTITLE9=King/Brubeck Jam
TTITLE10=Payin' The Cost To Be The Boss
EXTD=
EXTT0=
EXTT1=
EXTT2=
EXTT3=
EXTT4=
EXTT5=
EXTT6=
EXTT7=
EXTT8=
EXTT9=
EXTT10=
PLAYORDER=
